<svg width="24" height="24" viewBox="0 0 24 24" fill="none" xmlns="http://www.w3.org/2000/svg">
<path d="M7 11.35C6.64101 11.35 6.35 11.641 6.35 12C6.35 12.359 6.64101 12.65 7 12.65L7 11.35ZM16.4596 12.4596C16.7135 12.2058 16.7135 11.7942 16.4596 11.5404L12.323 7.40381C12.0692 7.14997 11.6576 7.14997 11.4038 7.40381C11.15 7.65765 11.15 8.0692 11.4038 8.32305L15.0808 12L11.4038 15.677C11.15 15.9308 11.15 16.3424 11.4038 16.5962C11.6576 16.85 12.0692 16.85 12.323 16.5962L16.4596 12.4596ZM7 12.65L16 12.65L16 11.35L7 11.35L7 12.65Z" fill="#F35D48"/>
</svg>
