<svg width="32" height="32" viewBox="0 0 32 32" fill="none" xmlns="http://www.w3.org/2000/svg">
<path d="M17.2141 16L23.3664 8.66641C23.4695 8.54453 23.3828 8.35938 23.2234 8.35938H21.3531C21.243 8.35938 21.1375 8.40859 21.0648 8.49297L15.9906 14.5422L10.9164 8.49297C10.8461 8.40859 10.7406 8.35938 10.6281 8.35938H8.75782C8.59844 8.35938 8.51172 8.54453 8.61485 8.66641L14.7672 16L8.61485 23.3336C8.59175 23.3608 8.57693 23.394 8.57215 23.4293C8.56737 23.4647 8.57283 23.5006 8.58788 23.533C8.60293 23.5653 8.62695 23.5926 8.65707 23.6117C8.68719 23.6308 8.72216 23.6408 8.75782 23.6406H10.6281C10.7383 23.6406 10.8438 23.5914 10.9164 23.507L15.9906 17.4578L21.0648 23.507C21.1352 23.5914 21.2406 23.6406 21.3531 23.6406H23.2234C23.3828 23.6406 23.4695 23.4555 23.3664 23.3336L17.2141 16Z" fill="white"/>
</svg>
