<svg width="34" height="34" viewBox="0 0 34 34" fill="none" xmlns="http://www.w3.org/2000/svg">
<path fill-rule="evenodd" clip-rule="evenodd" d="M30.595 9.67997L30.385 9.30497C30.1141 8.85151 29.7321 8.47462 29.275 8.20997L19.21 2.405C18.7543 2.14062 18.237 2.00093 17.71 2H17.275C16.7481 2.00093 16.2307 2.14062 15.775 2.405L5.71 8.22497C5.25545 8.48786 4.87789 8.86543 4.615 9.31997L4.405 9.69497C4.14062 10.1507 4.00093 10.6681 4 11.195V22.8199C4.00093 23.3469 4.14062 23.8642 4.405 24.3199L4.615 24.6949C4.88469 25.1442 5.26073 25.5202 5.71 25.7899L15.79 31.5949C16.2434 31.8647 16.7623 32.0048 17.29 31.9999H17.71C18.237 31.999 18.7543 31.8593 19.21 31.5949L29.275 25.7749C29.734 25.518 30.113 25.1389 30.37 24.6799L30.595 24.3049C30.8561 23.8479 30.9957 23.3314 31 22.8049V11.18C30.9991 10.6531 30.8594 10.1357 30.595 9.67997ZM17.275 4.99999H17.71L26.5 10.07L17.5 15.2599L8.5 10.07L17.275 4.99999ZM19 28.2499L27.775 23.1799L28 22.8049V12.665L19 17.8699V28.2499Z" fill="#7C7C7C"/>
</svg>
