<svg width="24" height="24" viewBox="0 0 24 24" fill="none" xmlns="http://www.w3.org/2000/svg">
<path d="M15.3032 8.11023H13.248C12.8697 8.11023 12.563 8.41694 12.563 8.79527V10.8504H15.3032C15.3811 10.8487 15.455 10.8849 15.5013 10.9476C15.5476 11.0103 15.5606 11.0915 15.5361 11.1655L15.0291 12.6726C14.9824 12.8109 14.8532 12.9044 14.7072 12.9055H12.563V18.0433C12.563 18.2324 12.4096 18.3858 12.2205 18.3858H10.5079C10.3187 18.3858 10.1654 18.2324 10.1654 18.0433V12.9055H9.13781C8.94864 12.9055 8.79529 12.7521 8.79529 12.563V11.1929C8.79529 11.0038 8.94864 10.8504 9.13781 10.8504H10.1654V8.79527C10.1654 7.28192 11.3922 6.05511 12.9055 6.05511H15.3032C15.4923 6.05511 15.6457 6.20847 15.6457 6.39763V7.76771C15.6457 7.95688 15.4923 8.11023 15.3032 8.11023Z" fill="#F35D48"/>
</svg>
