<svg width="24" height="24" viewBox="0 0 24 24" fill="none" xmlns="http://www.w3.org/2000/svg">
<path fill-rule="evenodd" clip-rule="evenodd" d="M14.9606 6.05512H9.48031C7.58863 6.05512 6.05511 7.58863 6.05511 9.48031V14.9606C6.05511 16.8523 7.58863 18.3858 9.48031 18.3858H14.9606C16.8523 18.3858 18.3858 16.8523 18.3858 14.9606V9.48031C18.3858 7.58863 16.8523 6.05512 14.9606 6.05512ZM17.187 14.9606C17.1832 16.1886 16.1886 17.1832 14.9606 17.187H9.48031C8.25228 17.1832 7.25769 16.1886 7.25393 14.9606V9.48031C7.25769 8.25228 8.25228 7.2577 9.48031 7.25394H14.9606C16.1886 7.2577 17.1832 8.25228 17.187 9.48031V14.9606ZM15.4744 9.65157C15.8528 9.65157 16.1594 9.34487 16.1594 8.96654C16.1594 8.5882 15.8528 8.2815 15.4744 8.2815C15.0961 8.2815 14.7894 8.5882 14.7894 8.96654C14.7894 9.34487 15.0961 9.65157 15.4744 9.65157ZM12.2205 9.1378C10.518 9.1378 9.13779 10.518 9.13779 12.2205C9.13779 13.923 10.518 15.3031 12.2205 15.3031C13.923 15.3031 15.3031 13.923 15.3031 12.2205C15.305 11.4023 14.9808 10.6172 14.4023 10.0387C13.8237 9.46017 13.0386 9.13597 12.2205 9.1378ZM10.3366 12.2205C10.3366 13.2609 11.18 14.1043 12.2205 14.1043C13.2609 14.1043 14.1043 13.2609 14.1043 12.2205C14.1043 11.18 13.2609 10.3366 12.2205 10.3366C11.18 10.3366 10.3366 11.18 10.3366 12.2205Z" fill="white"/>
</svg>
