<svg width="24" height="24" viewBox="0 0 24 24" fill="none" xmlns="http://www.w3.org/2000/svg">
<path fill-rule="evenodd" clip-rule="evenodd" d="M7.42519 6.05511H17.0157C17.7724 6.05511 18.3858 6.66852 18.3858 7.42519V17.0157C18.3858 17.7724 17.7724 18.3858 17.0157 18.3858H7.42519C6.66852 18.3858 6.05511 17.7724 6.05511 17.0157V7.42519C6.05511 6.66852 6.66852 6.05511 7.42519 6.05511ZM9.48031 16.3307C9.66948 16.3307 9.82283 16.1773 9.82283 15.9882V11.1929C9.82283 11.0038 9.66948 10.8504 9.48031 10.8504H8.45275C8.26359 10.8504 8.11023 11.0038 8.11023 11.1929V15.9882C8.11023 16.1773 8.26359 16.3307 8.45275 16.3307H9.48031ZM8.96653 10.1654C8.39902 10.1654 7.93897 9.7053 7.93897 9.13779C7.93897 8.57028 8.39902 8.11023 8.96653 8.11023C9.53404 8.11023 9.99409 8.57028 9.99409 9.13779C9.99409 9.7053 9.53404 10.1654 8.96653 10.1654ZM15.9882 16.3307C16.1773 16.3307 16.3307 16.1773 16.3307 15.9882V12.837C16.353 11.7483 15.5481 10.8192 14.4674 10.686C13.7118 10.617 12.9797 10.9699 12.563 11.6039V11.1929C12.563 11.0038 12.4096 10.8504 12.2205 10.8504H11.1929C11.0038 10.8504 10.8504 11.0038 10.8504 11.1929V15.9882C10.8504 16.1773 11.0038 16.3307 11.1929 16.3307H12.2205C12.4096 16.3307 12.563 16.1773 12.563 15.9882V13.4193C12.563 12.8518 13.0231 12.3917 13.5905 12.3917C14.158 12.3917 14.6181 12.8518 14.6181 13.4193V15.9882C14.6181 16.1773 14.7715 16.3307 14.9606 16.3307H15.9882Z" fill="#F35D48"/>
</svg>
